/* XPM */
static char *ec1321de14a948aceb6897ed6ffa553f[] = {
/* columns rows colors chars-per-pixel */
"16 16 156 2 ",
"   c #041217",
".  c #041218",
"X  c #051218",
"o  c #041318",
"O  c #051318",
"+  c #051319",
"@  c #061319",
"#  c #05161B",
"$  c #08151A",
"%  c #09181E",
"&  c #0A181E",
"*  c #0B191E",
"=  c #0A1B1F",
"-  c #081A21",
";  c #0B1A20",
":  c #0B1B21",
">  c #0C1B21",
",  c #0D1B21",
"<  c #0C1C23",
"1  c #0F1D23",
"2  c #091D24",
"3  c #0B1E24",
"4  c #0D1D24",
"5  c #0C1D25",
"6  c #0D1F26",
"7  c #101F26",
"8  c #0E2027",
"9  c #0F2027",
"0  c #0E2129",
"q  c #0F2229",
"w  c #0F222A",
"e  c #10222A",
"r  c #10232A",
"t  c #12232A",
"y  c #10242B",
"u  c #10252C",
"i  c #11252D",
"p  c #10262D",
"a  c #11252E",
"s  c #11262E",
"d  c #17272D",
"f  c #122730",
"g  c #132632",
"h  c #122831",
"j  c #122931",
"k  c #122932",
"l  c #132932",
"z  c #132933",
"x  c #122A33",
"c  c #132A33",
"v  c #122B33",
"b  c #132B34",
"n  c #142A34",
"m  c #142B34",
"M  c #142A35",
"N  c #132C34",
"B  c #122D34",
"V  c #142C36",
"C  c #142D36",
"Z  c #152D37",
"A  c #142E37",
"S  c #142F37",
"D  c #1C2D33",
"F  c #1C2D34",
"G  c #162C38",
"H  c #152F39",
"J  c #162F3A",
"K  c #172F3B",
"L  c #153039",
"P  c #16303B",
"I  c #16313B",
"U  c #16313C",
"Y  c #16323C",
"T  c #16323D",
"R  c #17323D",
"E  c #18333F",
"W  c #18343F",
"Q  c #212F34",
"!  c #2A373D",
"~  c #2B383D",
"^  c #2B383E",
"/  c #173540",
"(  c #1A3240",
")  c #1A3241",
"_  c #1C3343",
"`  c #183540",
"'  c #183541",
"]  c #193541",
"[  c #193642",
"{  c #1B3644",
"}  c #1D3445",
"|  c #193843",
" . c #193844",
".. c #1A3844",
"X. c #1D3748",
"o. c #1F3849",
"O. c #1D3B49",
"+. c #1D3B4A",
"@. c #2D3A40",
"#. c #2F3C41",
"$. c #22394D",
"%. c #22394E",
"&. c #213B4E",
"*. c #303D42",
"=. c #223D51",
"-. c #233E52",
";. c #233F53",
":. c #2F404B",
">. c #314046",
",. c #324147",
"<. c #344045",
"1. c #344146",
"2. c #374449",
"3. c #36454B",
"4. c #234154",
"5. c #234155",
"6. c #28425A",
"7. c #2A435D",
"8. c #29445D",
"9. c #2C4763",
"0. c #2D4864",
"q. c #2E4B68",
"w. c #2E4C68",
"e. c #2F4C69",
"r. c #2F4D6A",
"t. c #314E6D",
"y. c #324F6E",
"u. c #335073",
"i. c #345273",
"p. c #355273",
"a. c #39577B",
"s. c #39577C",
"d. c #3A577C",
"f. c #38567E",
"g. c #3A587D",
"h. c #3B587E",
"j. c #3B597E",
"k. c #3B597F",
"l. c #3C597F",
"z. c #576267",
"x. c #5E696D",
"c. c #616C70",
"v. c #646E72",
"b. c #667175",
"n. c #6A7477",
"m. c #707A7E",
"M. c #3C5A81",
"N. c #3E5C84",
"B. c #3E5C85",
"V. c #3E5D85",
"C. c #3F5D86",
"Z. c #3F5E87",
"A. c #405E88",
"S. c #767E81",
"D. c #788185",
"F. c None",
/* pixels */
"F.F.F.F.F.F.F.F.F.F.F.F.F.F.F.F.",
"..........W O.4.4.O.[ | ........",
"[ / [ [ [ q.N.A.A.V.r.[ W [ [ [ ",
"E E W I r.a.i.i.i.i.M.t.E E E E ",
"E I S -.g.I S I H S { A.-.S E I ",
"H H z q.a.I I S H X.-.V.w.v H H ",
"V V z t.a.V V z ) 8.&.V.y.z S M ",
"z V u 9.a.z z z z H o.V.0.p M z ",
"f f p _ d.G g V V a ) A.} y f f ",
"a a y w 6.N.l.a.d.l.Z.8.w f a a ",
"y w t 3 - %.p.M.d.u.%.3 w w w w ",
"8 8 3 3.,.$ D g *.:.: F t 6 w 6 ",
"5 > d z.b.c.m.n.S.2.b.D.x.7 , 6 ",
"- > & ^ ^ *.^ 1.#.*.*.#.Q , * > ",
"* * & o o o o o o o o o $ * * * ",
"F.F.F.F.F.F.F.F.F.F.F.F.F.F.F.F."
};
