/* XPM */
static char *_515027749724[] = {
/* columns rows colors chars-per-pixel */
"32 32 79 1 ",
"  c #010E14",
". c #021016",
"X c #05141B",
"o c #09171D",
"O c #0A181D",
"+ c #071920",
"@ c #0D1C22",
"# c #0E2026",
"$ c #0F2129",
"% c #122127",
"& c #11252D",
"* c #11282F",
"= c #19282E",
"- c #0F2431",
"; c #122730",
": c #132A34",
"> c #152E39",
", c #192E3C",
"< c #1B2D35",
"1 c #17323D",
"2 c #18333F",
"3 c #212E33",
"4 c #25343A",
"5 c #28373D",
"6 c #173641",
"7 c #193642",
"8 c #1B3946",
"9 c #1E3748",
"0 c #1E394A",
"q c #213B4E",
"w c #233E53",
"e c #273F58",
"r c #334146",
"t c #374449",
"y c #3D494E",
"u c #244156",
"i c #27425A",
"p c #29445D",
"a c #3E4B50",
"s c #2B4661",
"d c #2D4A66",
"f c #2F4D6A",
"g c #324E6E",
"h c #32506F",
"j c #345273",
"k c #385477",
"l c #375578",
"z c #38567A",
"x c #3B597E",
"c c #455156",
"v c #4A575C",
"b c #4E5A5F",
"n c #505B5F",
"m c #525D62",
"M c #576165",
"N c #5B666B",
"B c #5E686D",
"V c #616B6F",
"C c #636E73",
"Z c #6A7477",
"A c #6C7679",
"S c #6F797C",
"D c #707A7D",
"F c #3E5C84",
"G c #405E87",
"H c #405F89",
"J c #41608A",
"K c #747D81",
"L c #7A8386",
"P c #7E878B",
"I c #838B8E",
"U c #868E92",
"Y c #879093",
"T c #8A9295",
"R c #8F9699",
"E c #91989B",
"W c #979EA1",
"Q c #9CA2A5",
"! c None",
/* pixels */
"!!!!!!!!!!!!!!!!!!!!!!!!!!!!!!!!",
"88888888888888888088888888888888",
"88888888888886622288888888888888",
"7877778778718udffdu8268888787787",
"77777777776szFFGGGGxs66686287777",
"6767772718jFFFxxxxxxGl0622867227",
"227121229kHFFGGFGGFGFGx822222222",
"11111221hHgdddddfddfdlGj22222222",
"111111>wHj1>>>>>>>>1>wFFi>211121",
"1111>2>jHj>11111112,>0FFl1>11>11",
">>1>>>8FFj>>,>>>>>>6>0FxF8>1>>>>",
">>>>>:qFFj>>>>>>>>iiifFFGu:>>>>>",
">>>>>:wFFj:>>>>>*0pp*0FxFp*>>>>>",
":::::*wFFj::::::*8su2wFFHu*>::::",
"::::::9FFj::::::::0uusFFFw*:*>::",
":::*:;>zFh*:::;:::;;$6FxF2*>***:",
";;;;;:$dHg&;;&;&;;;;&7GGg%;;:;;;",
";-;;;;&7Gz,;:::;;:::*iGF9$;;;;-;",
"*&;;;&;@eHxzzzzzzzzzkxJp$*&&&***",
"$$$&&$&;@sHFFFFFFFFFGGd&$*&$&$*$",
"*&%$&%$&&@eFHGFxxFFHFe%&$&&&%&$&",
"$$$$$$*@@;@:pzFFFFjs>@%%$&@&$$$$",
"$$$$@&+;%+&@O@33,-<+@%*%@&@$@&@$",
"@@$@%+aTU5++44.OXAYcX+q5+@&@$@$@",
"@$@@#@T@4WcqRInIIV @ZDbCUmX#@@@@",
"@@@@#XUrcEMVLMAnQZ=bDnETcA@@@@@@",
"@@@@@X3LD%VDcMcIqcUcmAtn4c+@+@@@",
"@+@+@@o  O.. .o oo..X.o.+X@O@@@@",
"O@OO@@@O%O@@%OO%OO@@@@@@@@OO+@O@",
"OOOOooOOOOOOOOOOOOOOOOOOOOOOOOOX",
"OOOOOOOOOOOOOO@OO@OOOOOOOOOOOOOO",
"!!!!!!!!!!!!!!!!!!!!!!!!!!!!!!!!"
};
