/* XPM */
static char *_515027752985[] = {
/* columns rows colors chars-per-pixel */
"64 64 108 2 ",
"   c #000001",
".  c #00030B",
"X  c #00080F",
"o  c #000C13",
"O  c #021017",
"+  c #04141A",
"@  c #09171D",
"#  c #07181F",
"$  c #0B191E",
"%  c #071920",
"&  c #0D1C23",
"*  c #101F25",
"=  c #0E2027",
"-  c #0F2229",
";  c #112027",
":  c #11242C",
">  c #19272D",
",  c #10282F",
"<  c #1A282E",
"1  c #122730",
"2  c #132A34",
"3  c #1E2C32",
"4  c #152F39",
"5  c #16313C",
"6  c #18323E",
"7  c #233137",
"8  c #26343A",
"9  c #29373C",
"0  c #173540",
"q  c #193642",
"w  c #1A3845",
"e  c #1E3648",
"r  c #1E3B4B",
"t  c #2F3D43",
"y  c #20374A",
"u  c #203B4E",
"i  c #333F44",
"p  c #233D53",
"a  c #39454B",
"s  c #3C494E",
"d  c #244055",
"f  c #27425A",
"g  c #28445C",
"h  c #3F4B50",
"j  c #2B4661",
"k  c #2D4965",
"l  c #2F4B69",
"z  c #314E6D",
"x  c #334F70",
"c  c #355274",
"v  c #375478",
"b  c #39567B",
"n  c #3B597F",
"m  c #414D52",
"M  c #455156",
"N  c #465358",
"B  c #4D585D",
"V  c #505A5F",
"C  c #525D62",
"Z  c #566065",
"A  c #596367",
"S  c #5B666A",
"D  c #5E6A6E",
"F  c #616B6F",
"G  c #626D71",
"H  c #667175",
"J  c #697377",
"K  c #6B757A",
"L  c #6F787C",
"P  c #70797D",
"I  c #3D5B82",
"U  c #405F88",
"Y  c #476695",
"T  c #737D81",
"R  c #778184",
"E  c #7D8487",
"W  c #7F8589",
"Q  c #7E888C",
"!  c #818A8E",
"~  c #888D91",
"^  c #93999C",
"/  c #979EA1",
"(  c #989FA1",
")  c #9BA2A4",
"_  c #9FA6A8",
"`  c #A0A6A9",
"'  c #A5ABAD",
"]  c #A9AFB1",
"[  c #ADB2B4",
"{  c #B6BBBD",
"}  c #B8BDBF",
"|  c #BABFC1",
" . c #BDC2C4",
".. c #C1C5C7",
"X. c #C3C7C8",
"o. c #C6CACB",
"O. c #CACDCE",
"+. c #CCCFD0",
"@. c #CED2D3",
"#. c #D3D6D7",
"$. c #D5D8D9",
"%. c #DADCDD",
"&. c #DEDFE0",
"*. c #DEE0E1",
"=. c #E2E4E4",
"-. c #EAECEC",
";. c #EFF0F0",
":. c None",
/* pixels */
":.:.:.:.:.:.:.:.:.:.:.:.:.:.:.:.:.:.:.:.:.:.:.:.:.:.:.:.:.:.:.:.:.:.:.:.:.:.:.:.:.:.:.:.:.:.:.:.:.:.:.:.:.:.:.:.:.:.:.:.:.:.:.:.",
":.:.:.:.:.:.:.:.:.:.:.:.:.:.:.:.:.:.:.:.:.:.:.:.:.:.:.:.:.:.:.:.:.:.:.:.:.:.:.:.:.:.:.:.:.:.:.:.:.:.:.:.:.:.:.:.:.:.:.:.:.:.:.:.",
":.:.:.:.:.:.:.:.:.:.:.:.:.:.:.:.:.:.:.:.:.:.:.:.:.:.:.:.:.:.:.:.:.:.:.:.:.:.:.:.:.:.:.:.:.:.:.:.:.:.:.:.:.:.:.:.:.:.:.:.:.:.:.:.",
"w w w w w w w w w w w y w w w w w e r w r w w w w w w w w r r w w r w w w w r w w w w w w w w w w r w w w w w w w w w u w w w w ",
"w w w w w w w w w w w w w w w w w w w w 0 r w w w w w w w w w w w w w w w w w w w w w w w w w w w w w w w w w w w w w w w w w w ",
"w w q q w q w w w 6 w w w w w w 0 w w w w 0 w w w w w w w w 0 0 w 6 w w w w w w w w w w w w w w w w w w w w w w w 6 w w w w w w ",
"w q w w q w w 6 w w w w w w w w w w w 0 w w 0 w w q 6 6 q r u d d r r w w 6 w w w q q w 0 w w q w w 6 6 w w w w w w w w w w w w ",
"q w w w w q w w w 6 w 6 w 6 w w 0 e 0 w w 0 w 0 q r g z b n I I U I n v c g u 6 6 q w q q w q w w w w w w 6 w 6 w 6 w 6 w 6 w w ",
"q q q q q q q q w 6 w 6 w w 6 w w 0 w 0 w 0 0 r z I I I n U U n n n I I I I I c d 6 6 0 0 w 0 q w q q q q w 0 w w 6 w 6 w w 6 w ",
"0 q 0 0 0 w 0 0 6 w 6 w w 6 q 6 0 0 0 w 0 e k I I I I I n n n n I I I I I I I I I c r 0 w 0 w 0 0 0 0 q 0 0 q 0 6 w 6 w w 6 w 6 ",
"q q q q q q q q w 6 w w q q q q 0 0 0 0 p I I I I I I I U n U n I I I I n I n I n U I f 6 0 0 0 q q q q q q q q w 6 w w q q 6 q ",
"q q q q q q q 0 6 w 6 6 6 q 6 q 0 0 0 f I I I I I I I I I Z I I I I n I I I I I I I I U l 0 0 0 q q 6 q q q 6 w 6 w 6 6 q 6 q q ",
"0 0 0 0 0 0 0 0 0 0 0 0 q q 6 q 0 0 f I I I I I I I I I I n I I n I I I n I I n I n I n I l 5 0 6 0 q 0 0 0 0 0 0 0 0 0 6 q 6 q ",
"5 0 0 0 6 6 0 6 0 6 6 6 6 6 6 6 0 f I I I I I I I I I I n n I n n I I I I n I I n I I n I U j 5 q 5 0 5 0 6 6 0 6 0 6 6 6 6 6 6 ",
"6 6 6 6 6 6 6 6 6 6 6 6 6 6 6 5 r I I I I I I I I I I I U I n U U U I U I U I U I U U I I n I d 5 0 5 0 6 6 6 6 6 6 6 6 6 6 6 6 ",
"6 6 6 6 6 6 6 6 6 6 6 6 6 6 6 6 c I I I z u u u u u r r u u u u r r r r r u r u r u l I I I I I q 6 6 6 6 6 6 6 6 6 6 6 6 6 6 6 ",
"6 6 5 5 5 6 5 6 5 5 5 5 6 6 5 f I I I v 5 5 4 4 2 5 5 5 4 4 4 4 4 4 4 4 4 4 4 4 0 2 0 z I I I I l 4 5 6 5 5 5 5 6 5 5 5 5 6 5 6 ",
"5 5 5 5 5 5 5 5 5 5 5 5 5 5 6 b I n I k 4 6 5 5 5 6 5 5 6 5 6 5 0 0 4 0 0 4 0 0 0 0 2 j I I I I I r 5 5 5 5 5 5 5 5 5 5 5 5 5 5 ",
"5 5 5 5 5 5 5 4 4 5 5 4 5 4 d U I n U l 4 5 5 5 5 5 5 5 5 4 5 5 4 4 0 4 4 4 4 4 2 0 4 g I I I I U j 4 5 5 4 5 4 5 5 5 4 4 5 5 5 ",
"5 4 4 5 4 5 4 5 5 4 5 5 5 4 z I I n I l 2 5 5 5 5 4 5 5 5 5 5 4 6 4 4 4 4 0 0 4 4 0 4 g I I I I I b 6 4 5 4 5 5 5 5 4 5 5 4 5 5 ",
"4 4 4 4 4 4 4 4 4 5 4 5 4 e I I I n U k 2 5 4 4 5 2 5 5 4 5 4 4 4 4 4 4 0 2 0 0 4 0 1 j I I I I n I u 4 5 5 5 4 5 4 4 4 4 4 4 5 ",
"4 4 4 4 4 4 4 5 4 4 4 4 4 p I I n n U k 2 5 4 4 4 4 5 2 5 2 5 4 4 4 4 4 4 2 , 2 1 2 , g I I I I I U g 2 5 4 4 4 4 4 4 4 4 4 4 4 ",
"4 4 4 4 4 4 4 4 4 4 4 4 2 j I I I n I k 2 4 4 4 2 6 4 4 2 4 5 4 4 4 4 4 0 p z z z z z v I I I I I U z 2 4 4 4 4 4 4 4 4 4 4 4 4 ",
"4 2 4 4 2 4 2 4 2 4 4 4 2 l I I I n U k 2 4 2 4 4 4 2 5 2 4 2 5 4 4 4 4 z I p f f f f z I I I I n I c 5 4 4 2 2 4 2 2 4 4 2 4 2 ",
"4 4 4 2 2 4 4 4 4 4 4 2 2 x I I I n U k , 4 4 2 4 2 4 4 4 4 2 2 2 4 2 f c 2 r 0 1 2 - g I I I I n I v 4 4 4 2 4 4 2 2 4 4 4 4 2 ",
"2 2 4 2 2 2 2 2 2 2 4 4 2 x I I n I U k 2 4 2 4 2 4 2 2 2 4 2 2 2 4 2 l d e Y v 1 0 2 g I I I I I U n 5 2 4 2 2 4 2 4 2 2 2 4 2 ",
"4 2 2 2 4 2 2 2 2 4 4 2 1 x I I I n U g , 2 2 2 2 2 2 4 4 2 2 2 2 2 - k k 2 l p - 2 1 g I I I I n I v 4 2 2 2 4 2 2 2 4 4 2 2 2 ",
"2 2 2 2 2 2 2 2 2 2 2 2 1 z U I I n U k , 4 2 2 2 2 2 2 2 2 2 2 2 4 4 6 I f 2 4 0 0 2 g I I I I n U v 4 2 2 2 2 2 2 2 2 2 2 4 2 ",
"2 2 2 2 2 2 2 2 2 2 2 2 , j I I n n I k , 2 2 2 2 2 2 2 2 2 2 2 2 2 4 1 q v b b I c I I I I I I I U z 1 2 2 2 2 2 2 2 2 2 2 2 < ",
"2 2 2 2 2 2 2 2 2 2 2 2 , p U I I I U k , 2 2 2 2 2 2 2 2 2 2 2 1 2 2 2 1 1 0 0 0 0 1 g I I I I n U j , 2 2 2 2 2 2 2 2 2 2 2 2 ",
", 2 2 2 , 2 1 2 , , 1 2 > q I I n n U k , 2 2 2 2 2 , , 2 2 1 1 2 1 2 1 2 2 1 1 1 1 - g I I I I C U u , 2 1 1 2 2 , 2 , 2 , , 2 ",
"2 , , 2 2 , 2 1 2 2 2 2 1 1 x U I n U k , , , 2 , 2 2 2 , 1 2 2 1 1 1 2 1 1 1 1 2 2 1 g I I I I I n 4 1 2 1 2 , 2 2 2 , 2 2 2 , ",
"1 1 1 1 1 1 1 1 1 1 1 1 2 - j I I I I k - 2 1 1 2 1 2 1 2 1 2 1 2 2 1 1 2 1 2 2 2 1 : g I I I I I z : 1 1 1 1 1 1 1 1 1 1 1 1 2 ",
"1 1 1 1 1 1 1 1 1 1 1 1 1 - 0 I I I I k - 2 1 1 1 1 1 1 1 1 1 2 1 1 1 1 1 1 1 2 1 1 - g I I I I I u : 1 1 1 1 1 1 1 1 1 1 1 1 1 ",
"1 1 1 1 1 1 : 1 1 , 1 1 , 1 - j I I I l - 2 1 1 1 1 1 1 1 - 1 - 1 1 1 1 1 1 1 - 1 1 & j I I I I c - 1 1 1 1 : 1 1 1 1 1 2 - 1 1 ",
"1 1 1 : 1 1 1 1 1 1 : 1 1 1 - 4 I I I I p 1 2 1 1 1 1 1 2 2 2 2 1 1 1 1 1 2 2 1 2 1 y I I I I I w - 1 1 : 1 1 1 1 1 1 : 1 1 1 1 ",
": 1 1 - 1 1 : 1 : 1 : : 1 1 1 * e I I I I b v b v b v v v v v v v v v v v v v v v v I I I I I g * 1 1 1 : : : 1 1 : 1 1 - 1 1 - ",
"1 - - 1 - 1 : : : : : : - 1 : : - j I I I I I I I I I I I I I I I I I I I I I I I I I I I I c 1 1 - : 1 1 : 1 - : , : - 1 - - 1 ",
": : 1 : 1 - - 1 - 1 1 - 1 - - 1 1 - l U I I I I I I I I I I I I I I I I I I I I I I I I I v 2 - 1 - 1 - - 1 - 1 : : - 1 1 - 1 - ",
": - 1 - : : : : : : : : : : : : : - : l I b I I I I I I I I I I I I I I I I I I I I I I c 2 - - - : : : : : : : : : : : : 1 - 1 ",
"- : : - : : : - - - , : - : : : - : - * f I I I I I I I I I I I I I I I I I I I v I I l 1 * - 1 : : : - - , - - * - : : : : - : ",
"- - - : - - : - - - - - - - - - - - 1 - * q v I I I I I I I I I I I I I I I I I I I u * - - - - * - - : - - - - : - - - * : - * ",
"- - : - - - * - - - - - : - : - : - : - : * : p v I I I I I I I I I b I I I I I g 2 & - - : : - : - - - - - - - - : - : : - - : ",
"- - * - - : * - - - - - * - * - * - * - * : * & : e l b I I I I U I I I I l u 1 & * - - - - * - : * - - - - - - - * - * * - - * ",
"- , - - * - - - - - - - * * 1 - - - - - - - - - * & & - 4 e p p f p r q 1 * * * * - - - * 1 : * * - - * - - & - - - - - - - * - ",
"* % * - - * * * - * & - - * O + + % - * * * * - * - - - & & & $ & & & o O + + * - * * * * + % * * - * - - - - - - & - - * - * - ",
"* * - * * - * * - - * * * % Q X.| C + * - * * - * & & > * : : : : * % T  .| S * * - 1 * % Q C % : : - * - - & - & - - - - - * * ",
"- % - % * - % * % * * & % | +.C K -.J + % & & % X G C . ; o o + + + _ #.B K [ 1 % + X % % H h o O o + - % * * * & & % * * % - % ",
"- & & - & & & & & = ; o S %.+ o . s =.3 S : & D 7 ..+.C o F _ G N M *.; X O + & & P _ M o N 9 N J _ C % * & & = & = = & = & = & ",
"& & & & * & & * & & ; o ) ^ o , : $ @.Z  .7 & #.a | o.s L #.S %.{ R ' X : ; : O )  .H =.t ] S ' +.G &.s + * & & * & & & & & * & ",
"& & & & & & $ * & & : o ! [ . ; $ & %.M } 3 & O., ~ W   #.m   V { F  .. ; ; X > #.<   E ^ ) A ' A   ` K o * & & & & & & & & & & ",
"& & & & & & & * & & & + 9 -.C o O ` } $ #.; @ &.< ^ W   o.F   P O.= =.F X + K a +.a   ) Q ) S ' G . ` J o & & & & & & & & & & & ",
"& & & % & % * % & & & & o V =.X.$...< o ) O.[ -.> F -.m s %.` &.X.X m &...+.#.> F #.' @.& [ A ' G   ' J o * & & % * % & & & & & ",
"& % & & $ * $ & $ & & $ * o ; V m O $ & @ B s 8 ; $ C m X 7 S 8 7 & O ; V M + @ O a S ; O 9 > 8 < @ 8 < $ $ & $ * $ & & & & & $ ",
"% & % & & & & & & $ & & $ * $ o O & & & $ o o @ $ & o o * @ X + $ & & $ o O & & * O o $ * + @ @ @ & + @ & $ & & $ $ & & & $ & $ ",
"& & & & $ $ $ % $ & $ & $ & $ * & $ $ & $ & * & & $ & & $ & & & $ $ $ $ = & $ $ $ & & & $ & $ & & $ & & $ & $ & $ & $ & $ & $ & ",
"$ $ $ $ & $ $ $ $ & $ $ $ $ * $ $ $ $ $ & $ $ $ $ $ $ $ & $ $ $ $ $ $ $ & $ $ $ $ $ $ * $ $ $ $ $ $ $ $ * $ $ $ $ $ $ & $ $ $ & ",
"$ $ $ $ $ $ $ $ $ $ $ $ $ $ $ $ $ $ $ $ $ $ $ $ $ $ $ $ $ $ $ $ $ $ $ $ $ $ $ $ $ $ $ $ $ $ $ $ $ $ $ $ $ $ $ $ $ $ $ $ $ $ $ $ ",
"$ $ @ $ $ $ $ $ $ $ $ $ $ $ $ $ $ $ $ $ $ $ $ $ $ $ $ $ $ $ $ $ $ $ $ $ $ $ $ $ $ @ $ $ $ $ $ $ $ $ $ $ $ $ $ $ $ $ $ $ $ $ $ $ ",
"$ $ $ $ $ $ $ $ @ $ $ $ @ $ $ $ $ $ $ $ $ $ $ $ $ $ $ $ $ $ $ $ $ $ $ $ $ $ $ $ $ $ $ $ $ $ $ $ $ $ $ $ @ $ $ $ $ $ $ $ $ $ $ $ ",
"$ $ $ $ $ $ $ $ $ $ $ $ $ $ $ $ $ $ @ $ $ $ $ $ $ $ $ $ $ $ $ $ $ $ $ $ $ $ $ $ $ $ $ $ $ $ $ $ $ $ $ $ $ $ $ $ $ $ $ $ $ $ $ $ ",
":.:.:.:.:.:.:.:.:.:.:.:.:.:.:.:.:.:.:.:.:.:.:.:.:.:.:.:.:.:.:.:.:.:.:.:.:.:.:.:.:.:.:.:.:.:.:.:.:.:.:.:.:.:.:.:.:.:.:.:.:.:.:.:.",
":.:.:.:.:.:.:.:.:.:.:.:.:.:.:.:.:.:.:.:.:.:.:.:.:.:.:.:.:.:.:.:.:.:.:.:.:.:.:.:.:.:.:.:.:.:.:.:.:.:.:.:.:.:.:.:.:.:.:.:.:.:.:.:.",
":.:.:.:.:.:.:.:.:.:.:.:.:.:.:.:.:.:.:.:.:.:.:.:.:.:.:.:.:.:.:.:.:.:.:.:.:.:.:.:.:.:.:.:.:.:.:.:.:.:.:.:.:.:.:.:.:.:.:.:.:.:.:.:."
};
